<mxfile host="Electron" agent="Mozilla/5.0 (Windows NT 10.0; Win64; x64) AppleWebKit/537.36 (KHTML, like Gecko) draw.io/24.7.5 Chrome/126.0.6478.183 Electron/31.3.0 Safari/537.36" version="24.7.5">
  <diagram name="第 1 页" id="d5B1Vy4INVA4ix4ZaHiL">
    <mxGraphModel dx="1936" dy="829" grid="1" gridSize="10" guides="1" tooltips="1" connect="1" arrows="1" fold="1" page="1" pageScale="1" pageWidth="827" pageHeight="1169" math="0" shadow="0">
      <root>
        <mxCell id="0" />
        <mxCell id="1" parent="0" />
        <mxCell id="xk8DJ0h1tbh3rxzaz4R4-56" style="rounded=0;orthogonalLoop=1;jettySize=auto;html=1;exitX=0;exitY=1;exitDx=0;exitDy=0;entryX=1;entryY=0;entryDx=0;entryDy=0;" edge="1" parent="1" source="xk8DJ0h1tbh3rxzaz4R4-55" target="xk8DJ0h1tbh3rxzaz4R4-54">
          <mxGeometry relative="1" as="geometry" />
        </mxCell>
        <mxCell id="xk8DJ0h1tbh3rxzaz4R4-61" style="rounded=0;orthogonalLoop=1;jettySize=auto;html=1;exitX=0.25;exitY=1;exitDx=0;exitDy=0;entryX=0.5;entryY=0;entryDx=0;entryDy=0;" edge="1" parent="1" source="xk8DJ0h1tbh3rxzaz4R4-55" target="xk8DJ0h1tbh3rxzaz4R4-57">
          <mxGeometry relative="1" as="geometry" />
        </mxCell>
        <mxCell id="xk8DJ0h1tbh3rxzaz4R4-62" style="rounded=0;orthogonalLoop=1;jettySize=auto;html=1;exitX=0.5;exitY=1;exitDx=0;exitDy=0;entryX=0.5;entryY=0;entryDx=0;entryDy=0;" edge="1" parent="1" source="xk8DJ0h1tbh3rxzaz4R4-55" target="xk8DJ0h1tbh3rxzaz4R4-59">
          <mxGeometry relative="1" as="geometry" />
        </mxCell>
        <mxCell id="xk8DJ0h1tbh3rxzaz4R4-63" style="rounded=0;orthogonalLoop=1;jettySize=auto;html=1;exitX=0.75;exitY=1;exitDx=0;exitDy=0;entryX=0.5;entryY=0;entryDx=0;entryDy=0;" edge="1" parent="1" source="xk8DJ0h1tbh3rxzaz4R4-55" target="xk8DJ0h1tbh3rxzaz4R4-60">
          <mxGeometry relative="1" as="geometry" />
        </mxCell>
        <mxCell id="xk8DJ0h1tbh3rxzaz4R4-65" style="rounded=0;orthogonalLoop=1;jettySize=auto;html=1;exitX=1;exitY=1;exitDx=0;exitDy=0;entryX=0;entryY=0;entryDx=0;entryDy=0;" edge="1" parent="1" source="xk8DJ0h1tbh3rxzaz4R4-55" target="xk8DJ0h1tbh3rxzaz4R4-64">
          <mxGeometry relative="1" as="geometry" />
        </mxCell>
        <mxCell id="xk8DJ0h1tbh3rxzaz4R4-55" value="" style="rounded=0;whiteSpace=wrap;html=1;strokeWidth=0;" vertex="1" parent="1">
          <mxGeometry x="230" y="240" width="50" height="40" as="geometry" />
        </mxCell>
        <mxCell id="xk8DJ0h1tbh3rxzaz4R4-32" value="&lt;font style=&quot;font-size: 40px;&quot;&gt;∅&lt;/font&gt;" style="text;html=1;align=center;verticalAlign=middle;resizable=0;points=[];autosize=1;strokeColor=none;fillColor=none;" vertex="1" parent="1">
          <mxGeometry x="230" y="223" width="50" height="60" as="geometry" />
        </mxCell>
        <mxCell id="xk8DJ0h1tbh3rxzaz4R4-35" style="edgeStyle=orthogonalEdgeStyle;rounded=0;orthogonalLoop=1;jettySize=auto;html=1;exitX=1;exitY=0.5;exitDx=0;exitDy=0;entryX=0;entryY=0.5;entryDx=0;entryDy=0;endArrow=none;endFill=0;" edge="1" parent="1" source="xk8DJ0h1tbh3rxzaz4R4-33" target="xk8DJ0h1tbh3rxzaz4R4-34">
          <mxGeometry relative="1" as="geometry" />
        </mxCell>
        <mxCell id="xk8DJ0h1tbh3rxzaz4R4-37" style="edgeStyle=orthogonalEdgeStyle;rounded=0;orthogonalLoop=1;jettySize=auto;html=1;exitX=0.5;exitY=1;exitDx=0;exitDy=0;entryX=0.5;entryY=0;entryDx=0;entryDy=0;endArrow=none;endFill=0;" edge="1" parent="1" source="xk8DJ0h1tbh3rxzaz4R4-33" target="xk8DJ0h1tbh3rxzaz4R4-36">
          <mxGeometry relative="1" as="geometry" />
        </mxCell>
        <mxCell id="xk8DJ0h1tbh3rxzaz4R4-33" value="&lt;font style=&quot;font-size: 17px;&quot;&gt;1&lt;/font&gt;" style="ellipse;whiteSpace=wrap;html=1;aspect=fixed;" vertex="1" parent="1">
          <mxGeometry x="-120" y="200" width="40" height="40" as="geometry" />
        </mxCell>
        <mxCell id="xk8DJ0h1tbh3rxzaz4R4-41" style="rounded=0;orthogonalLoop=1;jettySize=auto;html=1;exitX=0;exitY=1;exitDx=0;exitDy=0;entryX=1;entryY=0;entryDx=0;entryDy=0;endArrow=none;endFill=0;" edge="1" parent="1" source="xk8DJ0h1tbh3rxzaz4R4-34" target="xk8DJ0h1tbh3rxzaz4R4-36">
          <mxGeometry relative="1" as="geometry" />
        </mxCell>
        <mxCell id="xk8DJ0h1tbh3rxzaz4R4-34" value="&lt;font style=&quot;font-size: 17px;&quot;&gt;2&lt;/font&gt;" style="ellipse;whiteSpace=wrap;html=1;aspect=fixed;" vertex="1" parent="1">
          <mxGeometry x="-30" y="200" width="40" height="40" as="geometry" />
        </mxCell>
        <mxCell id="xk8DJ0h1tbh3rxzaz4R4-39" style="edgeStyle=orthogonalEdgeStyle;rounded=0;orthogonalLoop=1;jettySize=auto;html=1;exitX=1;exitY=0.5;exitDx=0;exitDy=0;entryX=0;entryY=0.5;entryDx=0;entryDy=0;endArrow=none;endFill=0;" edge="1" parent="1" source="xk8DJ0h1tbh3rxzaz4R4-36" target="xk8DJ0h1tbh3rxzaz4R4-38">
          <mxGeometry relative="1" as="geometry" />
        </mxCell>
        <mxCell id="xk8DJ0h1tbh3rxzaz4R4-36" value="&lt;font style=&quot;font-size: 17px;&quot;&gt;3&lt;/font&gt;" style="ellipse;whiteSpace=wrap;html=1;aspect=fixed;" vertex="1" parent="1">
          <mxGeometry x="-120" y="280" width="40" height="40" as="geometry" />
        </mxCell>
        <mxCell id="xk8DJ0h1tbh3rxzaz4R4-40" style="edgeStyle=orthogonalEdgeStyle;rounded=0;orthogonalLoop=1;jettySize=auto;html=1;exitX=0.5;exitY=0;exitDx=0;exitDy=0;entryX=0.5;entryY=1;entryDx=0;entryDy=0;endArrow=none;endFill=0;" edge="1" parent="1" source="xk8DJ0h1tbh3rxzaz4R4-38" target="xk8DJ0h1tbh3rxzaz4R4-34">
          <mxGeometry relative="1" as="geometry" />
        </mxCell>
        <mxCell id="xk8DJ0h1tbh3rxzaz4R4-43" style="rounded=0;orthogonalLoop=1;jettySize=auto;html=1;exitX=1;exitY=0;exitDx=0;exitDy=0;entryX=0;entryY=1;entryDx=0;entryDy=0;endArrow=none;endFill=0;" edge="1" parent="1" source="xk8DJ0h1tbh3rxzaz4R4-38" target="xk8DJ0h1tbh3rxzaz4R4-42">
          <mxGeometry relative="1" as="geometry" />
        </mxCell>
        <mxCell id="xk8DJ0h1tbh3rxzaz4R4-38" value="&lt;font style=&quot;font-size: 17px;&quot;&gt;4&lt;/font&gt;" style="ellipse;whiteSpace=wrap;html=1;aspect=fixed;" vertex="1" parent="1">
          <mxGeometry x="-30" y="280" width="40" height="40" as="geometry" />
        </mxCell>
        <mxCell id="xk8DJ0h1tbh3rxzaz4R4-42" value="&lt;font style=&quot;font-size: 17px;&quot;&gt;5&lt;/font&gt;" style="ellipse;whiteSpace=wrap;html=1;aspect=fixed;" vertex="1" parent="1">
          <mxGeometry x="30" y="223" width="40" height="40" as="geometry" />
        </mxCell>
        <mxCell id="xk8DJ0h1tbh3rxzaz4R4-53" value="&lt;font style=&quot;font-size: 18px;&quot;&gt;level 0&lt;/font&gt;" style="text;html=1;align=center;verticalAlign=middle;resizable=0;points=[];autosize=1;strokeColor=none;fillColor=none;" vertex="1" parent="1">
          <mxGeometry x="320" y="243" width="80" height="40" as="geometry" />
        </mxCell>
        <mxCell id="xk8DJ0h1tbh3rxzaz4R4-72" style="rounded=0;orthogonalLoop=1;jettySize=auto;html=1;exitX=0;exitY=1;exitDx=0;exitDy=0;endArrow=none;endFill=0;" edge="1" parent="1" source="xk8DJ0h1tbh3rxzaz4R4-54">
          <mxGeometry relative="1" as="geometry">
            <mxPoint x="-190" y="450" as="targetPoint" />
          </mxGeometry>
        </mxCell>
        <mxCell id="xk8DJ0h1tbh3rxzaz4R4-73" style="rounded=0;orthogonalLoop=1;jettySize=auto;html=1;exitX=0.5;exitY=1;exitDx=0;exitDy=0;endArrow=none;endFill=0;" edge="1" parent="1" source="xk8DJ0h1tbh3rxzaz4R4-54">
          <mxGeometry relative="1" as="geometry">
            <mxPoint x="-90" y="450" as="targetPoint" />
          </mxGeometry>
        </mxCell>
        <mxCell id="xk8DJ0h1tbh3rxzaz4R4-54" value="&lt;font style=&quot;font-size: 17px;&quot;&gt;1&lt;/font&gt;" style="ellipse;whiteSpace=wrap;html=1;aspect=fixed;fillColor=#dae8fc;strokeColor=#6c8ebf;" vertex="1" parent="1">
          <mxGeometry x="20" y="370" width="40" height="40" as="geometry" />
        </mxCell>
        <mxCell id="xk8DJ0h1tbh3rxzaz4R4-90" style="rounded=0;orthogonalLoop=1;jettySize=auto;html=1;exitX=0;exitY=1;exitDx=0;exitDy=0;endArrow=none;endFill=0;" edge="1" parent="1" source="xk8DJ0h1tbh3rxzaz4R4-57">
          <mxGeometry relative="1" as="geometry">
            <mxPoint x="30" y="450" as="targetPoint" />
          </mxGeometry>
        </mxCell>
        <mxCell id="xk8DJ0h1tbh3rxzaz4R4-91" style="rounded=0;orthogonalLoop=1;jettySize=auto;html=1;exitX=0.5;exitY=1;exitDx=0;exitDy=0;endArrow=none;endFill=0;" edge="1" parent="1" source="xk8DJ0h1tbh3rxzaz4R4-57">
          <mxGeometry relative="1" as="geometry">
            <mxPoint x="110" y="450" as="targetPoint" />
          </mxGeometry>
        </mxCell>
        <mxCell id="xk8DJ0h1tbh3rxzaz4R4-92" style="rounded=0;orthogonalLoop=1;jettySize=auto;html=1;exitX=1;exitY=1;exitDx=0;exitDy=0;endArrow=none;endFill=0;" edge="1" parent="1" source="xk8DJ0h1tbh3rxzaz4R4-57">
          <mxGeometry relative="1" as="geometry">
            <mxPoint x="190" y="450" as="targetPoint" />
          </mxGeometry>
        </mxCell>
        <mxCell id="xk8DJ0h1tbh3rxzaz4R4-57" value="&lt;font style=&quot;font-size: 17px;&quot;&gt;2&lt;/font&gt;" style="ellipse;whiteSpace=wrap;html=1;aspect=fixed;fillColor=#dae8fc;strokeColor=#6c8ebf;" vertex="1" parent="1">
          <mxGeometry x="130" y="370" width="40" height="40" as="geometry" />
        </mxCell>
        <mxCell id="xk8DJ0h1tbh3rxzaz4R4-106" style="rounded=0;orthogonalLoop=1;jettySize=auto;html=1;exitX=0.5;exitY=1;exitDx=0;exitDy=0;endArrow=none;endFill=0;" edge="1" parent="1" source="xk8DJ0h1tbh3rxzaz4R4-59">
          <mxGeometry relative="1" as="geometry">
            <mxPoint x="390" y="450" as="targetPoint" />
          </mxGeometry>
        </mxCell>
        <mxCell id="xk8DJ0h1tbh3rxzaz4R4-107" style="rounded=0;orthogonalLoop=1;jettySize=auto;html=1;exitX=1;exitY=1;exitDx=0;exitDy=0;endArrow=none;endFill=0;" edge="1" parent="1" source="xk8DJ0h1tbh3rxzaz4R4-59">
          <mxGeometry relative="1" as="geometry">
            <mxPoint x="480" y="450" as="targetPoint" />
          </mxGeometry>
        </mxCell>
        <mxCell id="xk8DJ0h1tbh3rxzaz4R4-108" style="rounded=0;orthogonalLoop=1;jettySize=auto;html=1;exitX=0;exitY=1;exitDx=0;exitDy=0;endArrow=none;endFill=0;" edge="1" parent="1" source="xk8DJ0h1tbh3rxzaz4R4-59">
          <mxGeometry relative="1" as="geometry">
            <mxPoint x="300" y="460" as="targetPoint" />
          </mxGeometry>
        </mxCell>
        <mxCell id="xk8DJ0h1tbh3rxzaz4R4-59" value="&lt;font style=&quot;font-size: 17px;&quot;&gt;3&lt;/font&gt;" style="ellipse;whiteSpace=wrap;html=1;aspect=fixed;fillColor=#dae8fc;strokeColor=#6c8ebf;" vertex="1" parent="1">
          <mxGeometry x="235" y="370" width="45" height="45" as="geometry" />
        </mxCell>
        <mxCell id="xk8DJ0h1tbh3rxzaz4R4-102" style="rounded=0;orthogonalLoop=1;jettySize=auto;html=1;exitX=1;exitY=1;exitDx=0;exitDy=0;endArrow=none;endFill=0;" edge="1" parent="1" source="xk8DJ0h1tbh3rxzaz4R4-60">
          <mxGeometry relative="1" as="geometry">
            <mxPoint x="540" y="450" as="targetPoint" />
          </mxGeometry>
        </mxCell>
        <mxCell id="xk8DJ0h1tbh3rxzaz4R4-60" value="&lt;font style=&quot;font-size: 17px;&quot;&gt;4&lt;/font&gt;" style="ellipse;whiteSpace=wrap;html=1;aspect=fixed;fillColor=#dae8fc;strokeColor=#6c8ebf;" vertex="1" parent="1">
          <mxGeometry x="340" y="370" width="40" height="40" as="geometry" />
        </mxCell>
        <mxCell id="xk8DJ0h1tbh3rxzaz4R4-104" style="rounded=0;orthogonalLoop=1;jettySize=auto;html=1;exitX=1;exitY=1;exitDx=0;exitDy=0;endArrow=none;endFill=0;" edge="1" parent="1" source="xk8DJ0h1tbh3rxzaz4R4-64">
          <mxGeometry relative="1" as="geometry">
            <mxPoint x="590" y="450" as="targetPoint" />
          </mxGeometry>
        </mxCell>
        <mxCell id="xk8DJ0h1tbh3rxzaz4R4-64" value="&lt;font style=&quot;font-size: 17px;&quot;&gt;5&lt;/font&gt;" style="ellipse;whiteSpace=wrap;html=1;aspect=fixed;fillColor=#dae8fc;strokeColor=#6c8ebf;" vertex="1" parent="1">
          <mxGeometry x="450" y="370" width="40" height="40" as="geometry" />
        </mxCell>
        <mxCell id="xk8DJ0h1tbh3rxzaz4R4-80" style="edgeStyle=orthogonalEdgeStyle;rounded=0;orthogonalLoop=1;jettySize=auto;html=1;exitX=1;exitY=0.5;exitDx=0;exitDy=0;entryX=0;entryY=0.5;entryDx=0;entryDy=0;endArrow=none;endFill=0;" edge="1" parent="1" source="xk8DJ0h1tbh3rxzaz4R4-81" target="xk8DJ0h1tbh3rxzaz4R4-82">
          <mxGeometry relative="1" as="geometry" />
        </mxCell>
        <mxCell id="xk8DJ0h1tbh3rxzaz4R4-122" style="rounded=0;orthogonalLoop=1;jettySize=auto;html=1;endArrow=none;endFill=0;" edge="1" parent="1">
          <mxGeometry relative="1" as="geometry">
            <mxPoint x="-40" y="530" as="targetPoint" />
            <mxPoint x="20" y="480" as="sourcePoint" />
          </mxGeometry>
        </mxCell>
        <mxCell id="xk8DJ0h1tbh3rxzaz4R4-81" value="&lt;font style=&quot;font-size: 17px;&quot;&gt;2&lt;/font&gt;" style="ellipse;whiteSpace=wrap;html=1;aspect=fixed;fillColor=#dae8fc;strokeColor=#6c8ebf;" vertex="1" parent="1">
          <mxGeometry x="-18" y="450" width="30" height="30" as="geometry" />
        </mxCell>
        <mxCell id="xk8DJ0h1tbh3rxzaz4R4-123" style="rounded=0;orthogonalLoop=1;jettySize=auto;html=1;endArrow=none;endFill=0;" edge="1" parent="1">
          <mxGeometry relative="1" as="geometry">
            <mxPoint x="60" y="530" as="targetPoint" />
            <mxPoint x="20" y="480" as="sourcePoint" />
          </mxGeometry>
        </mxCell>
        <mxCell id="xk8DJ0h1tbh3rxzaz4R4-82" value="&lt;font style=&quot;font-size: 17px;&quot;&gt;1&lt;/font&gt;" style="ellipse;whiteSpace=wrap;html=1;aspect=fixed;fillColor=#fff2cc;strokeColor=#d6b656;" vertex="1" parent="1">
          <mxGeometry x="32" y="450" width="30" height="30" as="geometry" />
        </mxCell>
        <mxCell id="xk8DJ0h1tbh3rxzaz4R4-83" style="edgeStyle=orthogonalEdgeStyle;rounded=0;orthogonalLoop=1;jettySize=auto;html=1;exitX=1;exitY=0.5;exitDx=0;exitDy=0;entryX=0;entryY=0.5;entryDx=0;entryDy=0;endArrow=none;endFill=0;" edge="1" parent="1" source="xk8DJ0h1tbh3rxzaz4R4-84" target="xk8DJ0h1tbh3rxzaz4R4-85">
          <mxGeometry relative="1" as="geometry" />
        </mxCell>
        <mxCell id="xk8DJ0h1tbh3rxzaz4R4-84" value="&lt;font style=&quot;font-size: 17px;&quot;&gt;2&lt;/font&gt;" style="ellipse;whiteSpace=wrap;html=1;aspect=fixed;fillColor=#f5f5f5;strokeColor=#666666;fontColor=#333333;" vertex="1" parent="1">
          <mxGeometry x="158" y="450" width="30" height="30" as="geometry" />
        </mxCell>
        <mxCell id="xk8DJ0h1tbh3rxzaz4R4-85" value="&lt;font style=&quot;font-size: 17px;&quot;&gt;4&lt;/font&gt;" style="ellipse;whiteSpace=wrap;html=1;aspect=fixed;fillColor=#f5f5f5;fontColor=#333333;strokeColor=#666666;" vertex="1" parent="1">
          <mxGeometry x="208" y="450" width="30" height="30" as="geometry" />
        </mxCell>
        <mxCell id="xk8DJ0h1tbh3rxzaz4R4-86" style="edgeStyle=orthogonalEdgeStyle;rounded=0;orthogonalLoop=1;jettySize=auto;html=1;exitX=1;exitY=0.5;exitDx=0;exitDy=0;entryX=0;entryY=0.5;entryDx=0;entryDy=0;endArrow=none;endFill=0;" edge="1" parent="1" source="xk8DJ0h1tbh3rxzaz4R4-87" target="xk8DJ0h1tbh3rxzaz4R4-88">
          <mxGeometry relative="1" as="geometry" />
        </mxCell>
        <mxCell id="xk8DJ0h1tbh3rxzaz4R4-87" value="&lt;font style=&quot;font-size: 17px;&quot;&gt;2&lt;/font&gt;" style="ellipse;whiteSpace=wrap;html=1;aspect=fixed;fillColor=#f5f5f5;strokeColor=#666666;fontColor=#333333;" vertex="1" parent="1">
          <mxGeometry x="70" y="450" width="30" height="30" as="geometry" />
        </mxCell>
        <mxCell id="xk8DJ0h1tbh3rxzaz4R4-88" value="&lt;font style=&quot;font-size: 17px;&quot;&gt;3&lt;/font&gt;" style="ellipse;whiteSpace=wrap;html=1;aspect=fixed;fillColor=#f5f5f5;fontColor=#333333;strokeColor=#666666;" vertex="1" parent="1">
          <mxGeometry x="120" y="450" width="30" height="30" as="geometry" />
        </mxCell>
        <mxCell id="xk8DJ0h1tbh3rxzaz4R4-93" style="edgeStyle=orthogonalEdgeStyle;rounded=0;orthogonalLoop=1;jettySize=auto;html=1;exitX=1;exitY=0.5;exitDx=0;exitDy=0;entryX=0;entryY=0.5;entryDx=0;entryDy=0;endArrow=none;endFill=0;" edge="1" parent="1" source="xk8DJ0h1tbh3rxzaz4R4-94" target="xk8DJ0h1tbh3rxzaz4R4-95">
          <mxGeometry relative="1" as="geometry" />
        </mxCell>
        <mxCell id="xk8DJ0h1tbh3rxzaz4R4-94" value="&lt;font style=&quot;font-size: 17px;&quot;&gt;3&lt;/font&gt;" style="ellipse;whiteSpace=wrap;html=1;aspect=fixed;fillColor=#dae8fc;strokeColor=#6c8ebf;" vertex="1" parent="1">
          <mxGeometry x="260" y="450" width="30" height="30" as="geometry" />
        </mxCell>
        <mxCell id="xk8DJ0h1tbh3rxzaz4R4-95" value="&lt;font style=&quot;font-size: 17px;&quot;&gt;1&lt;/font&gt;" style="ellipse;whiteSpace=wrap;html=1;aspect=fixed;fillColor=#fff2cc;strokeColor=#d6b656;" vertex="1" parent="1">
          <mxGeometry x="310" y="450" width="30" height="30" as="geometry" />
        </mxCell>
        <mxCell id="xk8DJ0h1tbh3rxzaz4R4-96" style="edgeStyle=orthogonalEdgeStyle;rounded=0;orthogonalLoop=1;jettySize=auto;html=1;exitX=1;exitY=0.5;exitDx=0;exitDy=0;entryX=0;entryY=0.5;entryDx=0;entryDy=0;endArrow=none;endFill=0;" edge="1" parent="1" source="xk8DJ0h1tbh3rxzaz4R4-97" target="xk8DJ0h1tbh3rxzaz4R4-98">
          <mxGeometry relative="1" as="geometry" />
        </mxCell>
        <mxCell id="xk8DJ0h1tbh3rxzaz4R4-97" value="&lt;font style=&quot;font-size: 17px;&quot;&gt;3&lt;/font&gt;" style="ellipse;whiteSpace=wrap;html=1;aspect=fixed;fillColor=#f5f5f5;strokeColor=#666666;fontColor=#333333;" vertex="1" parent="1">
          <mxGeometry x="436" y="450" width="30" height="30" as="geometry" />
        </mxCell>
        <mxCell id="xk8DJ0h1tbh3rxzaz4R4-98" value="&lt;font style=&quot;font-size: 17px;&quot;&gt;4&lt;/font&gt;" style="ellipse;whiteSpace=wrap;html=1;aspect=fixed;fillColor=#f5f5f5;fontColor=#333333;strokeColor=#666666;" vertex="1" parent="1">
          <mxGeometry x="486" y="450" width="30" height="30" as="geometry" />
        </mxCell>
        <mxCell id="xk8DJ0h1tbh3rxzaz4R4-99" style="edgeStyle=orthogonalEdgeStyle;rounded=0;orthogonalLoop=1;jettySize=auto;html=1;exitX=1;exitY=0.5;exitDx=0;exitDy=0;entryX=0;entryY=0.5;entryDx=0;entryDy=0;endArrow=none;endFill=0;" edge="1" parent="1" source="xk8DJ0h1tbh3rxzaz4R4-100" target="xk8DJ0h1tbh3rxzaz4R4-101">
          <mxGeometry relative="1" as="geometry" />
        </mxCell>
        <mxCell id="xk8DJ0h1tbh3rxzaz4R4-151" style="rounded=0;orthogonalLoop=1;jettySize=auto;html=1;endArrow=none;endFill=0;" edge="1" parent="1">
          <mxGeometry relative="1" as="geometry">
            <mxPoint x="440" y="540" as="targetPoint" />
            <mxPoint x="390" y="480" as="sourcePoint" />
          </mxGeometry>
        </mxCell>
        <mxCell id="xk8DJ0h1tbh3rxzaz4R4-100" value="&lt;font style=&quot;font-size: 17px;&quot;&gt;3&lt;/font&gt;" style="ellipse;whiteSpace=wrap;html=1;aspect=fixed;fillColor=#dae8fc;strokeColor=#6c8ebf;" vertex="1" parent="1">
          <mxGeometry x="348" y="450" width="30" height="30" as="geometry" />
        </mxCell>
        <mxCell id="xk8DJ0h1tbh3rxzaz4R4-158" style="rounded=0;orthogonalLoop=1;jettySize=auto;html=1;endArrow=none;endFill=0;" edge="1" parent="1">
          <mxGeometry relative="1" as="geometry">
            <mxPoint x="550" y="530" as="targetPoint" />
            <mxPoint x="390" y="480" as="sourcePoint" />
          </mxGeometry>
        </mxCell>
        <mxCell id="xk8DJ0h1tbh3rxzaz4R4-101" value="&lt;font style=&quot;font-size: 17px;&quot;&gt;2&lt;/font&gt;" style="ellipse;whiteSpace=wrap;html=1;aspect=fixed;fillColor=#fff2cc;strokeColor=#d6b656;" vertex="1" parent="1">
          <mxGeometry x="398" y="450" width="30" height="30" as="geometry" />
        </mxCell>
        <mxCell id="xk8DJ0h1tbh3rxzaz4R4-103" value="&lt;font style=&quot;font-size: 20px;&quot;&gt;...&lt;/font&gt;" style="text;html=1;align=center;verticalAlign=middle;resizable=0;points=[];autosize=1;strokeColor=none;fillColor=none;" vertex="1" parent="1">
          <mxGeometry x="520" y="443" width="40" height="40" as="geometry" />
        </mxCell>
        <mxCell id="xk8DJ0h1tbh3rxzaz4R4-105" value="&lt;font style=&quot;font-size: 20px;&quot;&gt;...&lt;/font&gt;" style="text;html=1;align=center;verticalAlign=middle;resizable=0;points=[];autosize=1;strokeColor=none;fillColor=none;" vertex="1" parent="1">
          <mxGeometry x="570" y="445" width="40" height="40" as="geometry" />
        </mxCell>
        <mxCell id="xk8DJ0h1tbh3rxzaz4R4-110" style="edgeStyle=orthogonalEdgeStyle;rounded=0;orthogonalLoop=1;jettySize=auto;html=1;exitX=1;exitY=0.5;exitDx=0;exitDy=0;entryX=0;entryY=0.5;entryDx=0;entryDy=0;endArrow=none;endFill=0;" edge="1" parent="1" source="xk8DJ0h1tbh3rxzaz4R4-111" target="xk8DJ0h1tbh3rxzaz4R4-112">
          <mxGeometry relative="1" as="geometry" />
        </mxCell>
        <mxCell id="xk8DJ0h1tbh3rxzaz4R4-111" value="&lt;font style=&quot;font-size: 17px;&quot;&gt;2&lt;/font&gt;" style="ellipse;whiteSpace=wrap;html=1;aspect=fixed;fillColor=#dae8fc;strokeColor=#6c8ebf;" vertex="1" parent="1">
          <mxGeometry x="-80" y="530" width="30" height="30" as="geometry" />
        </mxCell>
        <mxCell id="xk8DJ0h1tbh3rxzaz4R4-112" value="&lt;font style=&quot;font-size: 17px;&quot;&gt;1&lt;/font&gt;" style="ellipse;whiteSpace=wrap;html=1;aspect=fixed;fillColor=#fff2cc;strokeColor=#d6b656;" vertex="1" parent="1">
          <mxGeometry x="-30" y="530" width="30" height="30" as="geometry" />
        </mxCell>
        <mxCell id="xk8DJ0h1tbh3rxzaz4R4-114" style="rounded=0;orthogonalLoop=1;jettySize=auto;html=1;exitX=1;exitY=0;exitDx=0;exitDy=0;entryX=0.5;entryY=1;entryDx=0;entryDy=0;endArrow=none;endFill=0;" edge="1" parent="1" source="xk8DJ0h1tbh3rxzaz4R4-113" target="xk8DJ0h1tbh3rxzaz4R4-112">
          <mxGeometry relative="1" as="geometry" />
        </mxCell>
        <mxCell id="xk8DJ0h1tbh3rxzaz4R4-115" style="rounded=0;orthogonalLoop=1;jettySize=auto;html=1;exitX=0;exitY=0;exitDx=0;exitDy=0;entryX=0.5;entryY=1;entryDx=0;entryDy=0;endArrow=none;endFill=0;" edge="1" parent="1" source="xk8DJ0h1tbh3rxzaz4R4-113" target="xk8DJ0h1tbh3rxzaz4R4-111">
          <mxGeometry relative="1" as="geometry" />
        </mxCell>
        <mxCell id="xk8DJ0h1tbh3rxzaz4R4-170" style="rounded=0;orthogonalLoop=1;jettySize=auto;html=1;endArrow=none;endFill=0;" edge="1" parent="1">
          <mxGeometry relative="1" as="geometry">
            <mxPoint x="-100" y="670" as="targetPoint" />
            <mxPoint x="-50" y="620" as="sourcePoint" />
          </mxGeometry>
        </mxCell>
        <mxCell id="xk8DJ0h1tbh3rxzaz4R4-113" value="&lt;font style=&quot;font-size: 17px;&quot;&gt;3&lt;/font&gt;" style="ellipse;whiteSpace=wrap;html=1;aspect=fixed;fillColor=#f8cecc;strokeColor=#b85450;" vertex="1" parent="1">
          <mxGeometry x="-60" y="580" width="30" height="30" as="geometry" />
        </mxCell>
        <mxCell id="xk8DJ0h1tbh3rxzaz4R4-116" style="edgeStyle=orthogonalEdgeStyle;rounded=0;orthogonalLoop=1;jettySize=auto;html=1;exitX=1;exitY=0.5;exitDx=0;exitDy=0;entryX=0;entryY=0.5;entryDx=0;entryDy=0;endArrow=none;endFill=0;" edge="1" parent="1" source="xk8DJ0h1tbh3rxzaz4R4-117" target="xk8DJ0h1tbh3rxzaz4R4-118">
          <mxGeometry relative="1" as="geometry" />
        </mxCell>
        <mxCell id="xk8DJ0h1tbh3rxzaz4R4-117" value="&lt;font style=&quot;font-size: 17px;&quot;&gt;2&lt;/font&gt;" style="ellipse;whiteSpace=wrap;html=1;aspect=fixed;fillColor=#dae8fc;strokeColor=#6c8ebf;" vertex="1" parent="1">
          <mxGeometry x="20" y="530" width="30" height="30" as="geometry" />
        </mxCell>
        <mxCell id="xk8DJ0h1tbh3rxzaz4R4-118" value="&lt;font style=&quot;font-size: 17px;&quot;&gt;1&lt;/font&gt;" style="ellipse;whiteSpace=wrap;html=1;aspect=fixed;fillColor=#fff2cc;strokeColor=#d6b656;" vertex="1" parent="1">
          <mxGeometry x="70" y="530" width="30" height="30" as="geometry" />
        </mxCell>
        <mxCell id="xk8DJ0h1tbh3rxzaz4R4-119" style="rounded=0;orthogonalLoop=1;jettySize=auto;html=1;exitX=1;exitY=0;exitDx=0;exitDy=0;entryX=0.5;entryY=1;entryDx=0;entryDy=0;endArrow=none;endFill=0;" edge="1" parent="1" source="xk8DJ0h1tbh3rxzaz4R4-121" target="xk8DJ0h1tbh3rxzaz4R4-118">
          <mxGeometry relative="1" as="geometry" />
        </mxCell>
        <mxCell id="xk8DJ0h1tbh3rxzaz4R4-121" value="&lt;font style=&quot;font-size: 17px;&quot;&gt;4&lt;/font&gt;" style="ellipse;whiteSpace=wrap;html=1;aspect=fixed;fillColor=#f8cecc;strokeColor=#b85450;" vertex="1" parent="1">
          <mxGeometry x="40" y="580" width="30" height="30" as="geometry" />
        </mxCell>
        <mxCell id="xk8DJ0h1tbh3rxzaz4R4-124" value="" style="verticalLabelPosition=bottom;verticalAlign=top;html=1;shape=mxgraph.basic.x;fillColor=#d80073;fontColor=#ffffff;strokeColor=#A50040;" vertex="1" parent="1">
          <mxGeometry x="65" y="585" width="40" height="30" as="geometry" />
        </mxCell>
        <mxCell id="xk8DJ0h1tbh3rxzaz4R4-145" style="edgeStyle=orthogonalEdgeStyle;rounded=0;orthogonalLoop=1;jettySize=auto;html=1;exitX=1;exitY=0.5;exitDx=0;exitDy=0;entryX=0;entryY=0.5;entryDx=0;entryDy=0;endArrow=none;endFill=0;" edge="1" parent="1" source="xk8DJ0h1tbh3rxzaz4R4-146" target="xk8DJ0h1tbh3rxzaz4R4-147">
          <mxGeometry relative="1" as="geometry" />
        </mxCell>
        <mxCell id="xk8DJ0h1tbh3rxzaz4R4-146" value="&lt;font style=&quot;font-size: 17px;&quot;&gt;3&lt;/font&gt;" style="ellipse;whiteSpace=wrap;html=1;aspect=fixed;fillColor=#dae8fc;strokeColor=#6c8ebf;" vertex="1" parent="1">
          <mxGeometry x="398" y="535" width="30" height="30" as="geometry" />
        </mxCell>
        <mxCell id="xk8DJ0h1tbh3rxzaz4R4-147" value="&lt;font style=&quot;font-size: 17px;&quot;&gt;2&lt;/font&gt;" style="ellipse;whiteSpace=wrap;html=1;aspect=fixed;fillColor=#fff2cc;strokeColor=#d6b656;" vertex="1" parent="1">
          <mxGeometry x="448" y="535" width="30" height="30" as="geometry" />
        </mxCell>
        <mxCell id="xk8DJ0h1tbh3rxzaz4R4-148" style="rounded=0;orthogonalLoop=1;jettySize=auto;html=1;exitX=1;exitY=0;exitDx=0;exitDy=0;entryX=0.5;entryY=1;entryDx=0;entryDy=0;endArrow=none;endFill=0;" edge="1" parent="1" source="xk8DJ0h1tbh3rxzaz4R4-150" target="xk8DJ0h1tbh3rxzaz4R4-147">
          <mxGeometry relative="1" as="geometry" />
        </mxCell>
        <mxCell id="xk8DJ0h1tbh3rxzaz4R4-149" style="rounded=0;orthogonalLoop=1;jettySize=auto;html=1;exitX=0;exitY=0;exitDx=0;exitDy=0;entryX=0.5;entryY=1;entryDx=0;entryDy=0;endArrow=none;endFill=0;" edge="1" parent="1" source="xk8DJ0h1tbh3rxzaz4R4-150" target="xk8DJ0h1tbh3rxzaz4R4-146">
          <mxGeometry relative="1" as="geometry" />
        </mxCell>
        <mxCell id="xk8DJ0h1tbh3rxzaz4R4-204" style="rounded=0;orthogonalLoop=1;jettySize=auto;html=1;endArrow=none;endFill=0;" edge="1" parent="1">
          <mxGeometry relative="1" as="geometry">
            <mxPoint x="390" y="680" as="targetPoint" />
            <mxPoint x="433" y="620" as="sourcePoint" />
          </mxGeometry>
        </mxCell>
        <mxCell id="xk8DJ0h1tbh3rxzaz4R4-150" value="&lt;font style=&quot;font-size: 17px;&quot;&gt;1&lt;/font&gt;" style="ellipse;whiteSpace=wrap;html=1;aspect=fixed;fillColor=#f8cecc;strokeColor=#b85450;" vertex="1" parent="1">
          <mxGeometry x="418" y="585" width="30" height="30" as="geometry" />
        </mxCell>
        <mxCell id="xk8DJ0h1tbh3rxzaz4R4-152" style="edgeStyle=orthogonalEdgeStyle;rounded=0;orthogonalLoop=1;jettySize=auto;html=1;exitX=1;exitY=0.5;exitDx=0;exitDy=0;entryX=0;entryY=0.5;entryDx=0;entryDy=0;endArrow=none;endFill=0;" edge="1" parent="1" source="xk8DJ0h1tbh3rxzaz4R4-153" target="xk8DJ0h1tbh3rxzaz4R4-154">
          <mxGeometry relative="1" as="geometry" />
        </mxCell>
        <mxCell id="xk8DJ0h1tbh3rxzaz4R4-153" value="&lt;font style=&quot;font-size: 17px;&quot;&gt;3&lt;/font&gt;" style="ellipse;whiteSpace=wrap;html=1;aspect=fixed;fillColor=#dae8fc;strokeColor=#6c8ebf;" vertex="1" parent="1">
          <mxGeometry x="509" y="535" width="30" height="30" as="geometry" />
        </mxCell>
        <mxCell id="xk8DJ0h1tbh3rxzaz4R4-154" value="&lt;font style=&quot;font-size: 17px;&quot;&gt;2&lt;/font&gt;" style="ellipse;whiteSpace=wrap;html=1;aspect=fixed;fillColor=#fff2cc;strokeColor=#d6b656;" vertex="1" parent="1">
          <mxGeometry x="559" y="535" width="30" height="30" as="geometry" />
        </mxCell>
        <mxCell id="xk8DJ0h1tbh3rxzaz4R4-155" style="rounded=0;orthogonalLoop=1;jettySize=auto;html=1;exitX=1;exitY=0;exitDx=0;exitDy=0;entryX=0.5;entryY=1;entryDx=0;entryDy=0;endArrow=none;endFill=0;" edge="1" parent="1" source="xk8DJ0h1tbh3rxzaz4R4-157" target="xk8DJ0h1tbh3rxzaz4R4-154">
          <mxGeometry relative="1" as="geometry" />
        </mxCell>
        <mxCell id="xk8DJ0h1tbh3rxzaz4R4-156" style="rounded=0;orthogonalLoop=1;jettySize=auto;html=1;exitX=0;exitY=0;exitDx=0;exitDy=0;entryX=0.5;entryY=1;entryDx=0;entryDy=0;endArrow=none;endFill=0;" edge="1" parent="1" source="xk8DJ0h1tbh3rxzaz4R4-157" target="xk8DJ0h1tbh3rxzaz4R4-153">
          <mxGeometry relative="1" as="geometry" />
        </mxCell>
        <mxCell id="xk8DJ0h1tbh3rxzaz4R4-225" style="rounded=0;orthogonalLoop=1;jettySize=auto;html=1;endArrow=none;endFill=0;" edge="1" parent="1">
          <mxGeometry relative="1" as="geometry">
            <mxPoint x="580" y="670" as="targetPoint" />
            <mxPoint x="550" y="624" as="sourcePoint" />
          </mxGeometry>
        </mxCell>
        <mxCell id="xk8DJ0h1tbh3rxzaz4R4-226" style="rounded=0;orthogonalLoop=1;jettySize=auto;html=1;endArrow=none;endFill=0;" edge="1" parent="1">
          <mxGeometry relative="1" as="geometry">
            <mxPoint x="680" y="674" as="targetPoint" />
            <mxPoint x="550" y="620" as="sourcePoint" />
          </mxGeometry>
        </mxCell>
        <mxCell id="xk8DJ0h1tbh3rxzaz4R4-157" value="&lt;font style=&quot;font-size: 17px;&quot;&gt;4&lt;/font&gt;" style="ellipse;whiteSpace=wrap;html=1;aspect=fixed;fillColor=#f8cecc;strokeColor=#b85450;" vertex="1" parent="1">
          <mxGeometry x="529" y="585" width="30" height="30" as="geometry" />
        </mxCell>
        <mxCell id="xk8DJ0h1tbh3rxzaz4R4-159" style="edgeStyle=orthogonalEdgeStyle;rounded=0;orthogonalLoop=1;jettySize=auto;html=1;exitX=1;exitY=0.5;exitDx=0;exitDy=0;entryX=0;entryY=0.5;entryDx=0;entryDy=0;endArrow=none;endFill=0;" edge="1" parent="1" source="xk8DJ0h1tbh3rxzaz4R4-160" target="xk8DJ0h1tbh3rxzaz4R4-161">
          <mxGeometry relative="1" as="geometry" />
        </mxCell>
        <mxCell id="xk8DJ0h1tbh3rxzaz4R4-165" style="rounded=0;orthogonalLoop=1;jettySize=auto;html=1;exitX=0.5;exitY=1;exitDx=0;exitDy=0;entryX=0.5;entryY=0;entryDx=0;entryDy=0;endArrow=none;endFill=0;" edge="1" parent="1" source="xk8DJ0h1tbh3rxzaz4R4-160" target="xk8DJ0h1tbh3rxzaz4R4-164">
          <mxGeometry relative="1" as="geometry" />
        </mxCell>
        <mxCell id="xk8DJ0h1tbh3rxzaz4R4-168" style="rounded=0;orthogonalLoop=1;jettySize=auto;html=1;exitX=1;exitY=1;exitDx=0;exitDy=0;entryX=0;entryY=0;entryDx=0;entryDy=0;endArrow=none;endFill=0;" edge="1" parent="1" source="xk8DJ0h1tbh3rxzaz4R4-160" target="xk8DJ0h1tbh3rxzaz4R4-167">
          <mxGeometry relative="1" as="geometry" />
        </mxCell>
        <mxCell id="xk8DJ0h1tbh3rxzaz4R4-160" value="&lt;font style=&quot;font-size: 17px;&quot;&gt;2&lt;/font&gt;" style="ellipse;whiteSpace=wrap;html=1;aspect=fixed;fillColor=#dae8fc;strokeColor=#6c8ebf;" vertex="1" parent="1">
          <mxGeometry x="-140" y="671" width="30" height="30" as="geometry" />
        </mxCell>
        <mxCell id="xk8DJ0h1tbh3rxzaz4R4-166" style="rounded=0;orthogonalLoop=1;jettySize=auto;html=1;exitX=0;exitY=1;exitDx=0;exitDy=0;entryX=1;entryY=0;entryDx=0;entryDy=0;endArrow=none;endFill=0;" edge="1" parent="1" source="xk8DJ0h1tbh3rxzaz4R4-161" target="xk8DJ0h1tbh3rxzaz4R4-164">
          <mxGeometry relative="1" as="geometry" />
        </mxCell>
        <mxCell id="xk8DJ0h1tbh3rxzaz4R4-161" value="&lt;font style=&quot;font-size: 17px;&quot;&gt;1&lt;/font&gt;" style="ellipse;whiteSpace=wrap;html=1;aspect=fixed;fillColor=#fff2cc;strokeColor=#d6b656;" vertex="1" parent="1">
          <mxGeometry x="-90" y="671" width="30" height="30" as="geometry" />
        </mxCell>
        <mxCell id="xk8DJ0h1tbh3rxzaz4R4-169" style="edgeStyle=orthogonalEdgeStyle;rounded=0;orthogonalLoop=1;jettySize=auto;html=1;exitX=1;exitY=0.5;exitDx=0;exitDy=0;entryX=0;entryY=0.5;entryDx=0;entryDy=0;endArrow=none;endFill=0;" edge="1" parent="1" source="xk8DJ0h1tbh3rxzaz4R4-164" target="xk8DJ0h1tbh3rxzaz4R4-167">
          <mxGeometry relative="1" as="geometry" />
        </mxCell>
        <mxCell id="xk8DJ0h1tbh3rxzaz4R4-164" value="&lt;font style=&quot;font-size: 17px;&quot;&gt;3&lt;/font&gt;" style="ellipse;whiteSpace=wrap;html=1;aspect=fixed;fillColor=#f8cecc;strokeColor=#b85450;" vertex="1" parent="1">
          <mxGeometry x="-140" y="731" width="30" height="30" as="geometry" />
        </mxCell>
        <mxCell id="xk8DJ0h1tbh3rxzaz4R4-167" value="&lt;font style=&quot;font-size: 17px;&quot;&gt;4&lt;/font&gt;" style="ellipse;whiteSpace=wrap;html=1;aspect=fixed;fillColor=#e1d5e7;strokeColor=#9673a6;" vertex="1" parent="1">
          <mxGeometry x="-90" y="731" width="30" height="30" as="geometry" />
        </mxCell>
        <mxCell id="xk8DJ0h1tbh3rxzaz4R4-181" style="edgeStyle=orthogonalEdgeStyle;rounded=0;orthogonalLoop=1;jettySize=auto;html=1;exitX=1;exitY=0.5;exitDx=0;exitDy=0;entryX=0;entryY=0.5;entryDx=0;entryDy=0;endArrow=none;endFill=0;" edge="1" parent="1" source="xk8DJ0h1tbh3rxzaz4R4-184" target="xk8DJ0h1tbh3rxzaz4R4-186">
          <mxGeometry relative="1" as="geometry" />
        </mxCell>
        <mxCell id="xk8DJ0h1tbh3rxzaz4R4-182" style="rounded=0;orthogonalLoop=1;jettySize=auto;html=1;exitX=0.5;exitY=1;exitDx=0;exitDy=0;entryX=0.5;entryY=0;entryDx=0;entryDy=0;endArrow=none;endFill=0;" edge="1" parent="1" source="xk8DJ0h1tbh3rxzaz4R4-184" target="xk8DJ0h1tbh3rxzaz4R4-188">
          <mxGeometry relative="1" as="geometry" />
        </mxCell>
        <mxCell id="xk8DJ0h1tbh3rxzaz4R4-183" style="rounded=0;orthogonalLoop=1;jettySize=auto;html=1;exitX=1;exitY=1;exitDx=0;exitDy=0;entryX=0;entryY=0;entryDx=0;entryDy=0;endArrow=none;endFill=0;" edge="1" parent="1" source="xk8DJ0h1tbh3rxzaz4R4-184" target="xk8DJ0h1tbh3rxzaz4R4-189">
          <mxGeometry relative="1" as="geometry" />
        </mxCell>
        <mxCell id="xk8DJ0h1tbh3rxzaz4R4-184" value="&lt;font style=&quot;font-size: 17px;&quot;&gt;3&lt;/font&gt;" style="ellipse;whiteSpace=wrap;html=1;aspect=fixed;fillColor=#dae8fc;strokeColor=#6c8ebf;" vertex="1" parent="1">
          <mxGeometry x="353" y="671" width="30" height="30" as="geometry" />
        </mxCell>
        <mxCell id="xk8DJ0h1tbh3rxzaz4R4-185" style="rounded=0;orthogonalLoop=1;jettySize=auto;html=1;exitX=0;exitY=1;exitDx=0;exitDy=0;entryX=1;entryY=0;entryDx=0;entryDy=0;endArrow=none;endFill=0;" edge="1" parent="1" source="xk8DJ0h1tbh3rxzaz4R4-186" target="xk8DJ0h1tbh3rxzaz4R4-188">
          <mxGeometry relative="1" as="geometry" />
        </mxCell>
        <mxCell id="xk8DJ0h1tbh3rxzaz4R4-186" value="&lt;span style=&quot;font-size: 17px;&quot;&gt;2&lt;/span&gt;" style="ellipse;whiteSpace=wrap;html=1;aspect=fixed;fillColor=#fff2cc;strokeColor=#d6b656;" vertex="1" parent="1">
          <mxGeometry x="403" y="671" width="30" height="30" as="geometry" />
        </mxCell>
        <mxCell id="xk8DJ0h1tbh3rxzaz4R4-188" value="&lt;font style=&quot;font-size: 17px;&quot;&gt;1&lt;/font&gt;" style="ellipse;whiteSpace=wrap;html=1;aspect=fixed;fillColor=#f8cecc;strokeColor=#b85450;" vertex="1" parent="1">
          <mxGeometry x="353" y="731" width="30" height="30" as="geometry" />
        </mxCell>
        <mxCell id="xk8DJ0h1tbh3rxzaz4R4-191" style="rounded=0;orthogonalLoop=1;jettySize=auto;html=1;exitX=0.5;exitY=0;exitDx=0;exitDy=0;entryX=0.5;entryY=1;entryDx=0;entryDy=0;endArrow=none;endFill=0;" edge="1" parent="1" source="xk8DJ0h1tbh3rxzaz4R4-189" target="xk8DJ0h1tbh3rxzaz4R4-186">
          <mxGeometry relative="1" as="geometry" />
        </mxCell>
        <mxCell id="xk8DJ0h1tbh3rxzaz4R4-189" value="&lt;font style=&quot;font-size: 17px;&quot;&gt;4&lt;/font&gt;" style="ellipse;whiteSpace=wrap;html=1;aspect=fixed;fillColor=#e1d5e7;strokeColor=#9673a6;" vertex="1" parent="1">
          <mxGeometry x="403" y="731" width="30" height="30" as="geometry" />
        </mxCell>
        <mxCell id="xk8DJ0h1tbh3rxzaz4R4-193" style="edgeStyle=orthogonalEdgeStyle;rounded=0;orthogonalLoop=1;jettySize=auto;html=1;exitX=1;exitY=0.5;exitDx=0;exitDy=0;entryX=0;entryY=0.5;entryDx=0;entryDy=0;endArrow=none;endFill=0;" edge="1" parent="1" source="xk8DJ0h1tbh3rxzaz4R4-196" target="xk8DJ0h1tbh3rxzaz4R4-198">
          <mxGeometry relative="1" as="geometry" />
        </mxCell>
        <mxCell id="xk8DJ0h1tbh3rxzaz4R4-194" style="rounded=0;orthogonalLoop=1;jettySize=auto;html=1;exitX=0.5;exitY=1;exitDx=0;exitDy=0;entryX=0.5;entryY=0;entryDx=0;entryDy=0;endArrow=none;endFill=0;" edge="1" parent="1" source="xk8DJ0h1tbh3rxzaz4R4-196" target="xk8DJ0h1tbh3rxzaz4R4-200">
          <mxGeometry relative="1" as="geometry" />
        </mxCell>
        <mxCell id="xk8DJ0h1tbh3rxzaz4R4-195" style="rounded=0;orthogonalLoop=1;jettySize=auto;html=1;exitX=1;exitY=1;exitDx=0;exitDy=0;entryX=0;entryY=0;entryDx=0;entryDy=0;endArrow=none;endFill=0;" edge="1" parent="1" source="xk8DJ0h1tbh3rxzaz4R4-196" target="xk8DJ0h1tbh3rxzaz4R4-201">
          <mxGeometry relative="1" as="geometry" />
        </mxCell>
        <mxCell id="xk8DJ0h1tbh3rxzaz4R4-196" value="&lt;span style=&quot;font-size: 17px;&quot;&gt;1&lt;/span&gt;" style="ellipse;whiteSpace=wrap;html=1;aspect=fixed;" vertex="1" parent="1">
          <mxGeometry x="560" y="220" width="30" height="30" as="geometry" />
        </mxCell>
        <mxCell id="xk8DJ0h1tbh3rxzaz4R4-197" style="rounded=0;orthogonalLoop=1;jettySize=auto;html=1;exitX=0;exitY=1;exitDx=0;exitDy=0;entryX=1;entryY=0;entryDx=0;entryDy=0;endArrow=none;endFill=0;" edge="1" parent="1" source="xk8DJ0h1tbh3rxzaz4R4-198" target="xk8DJ0h1tbh3rxzaz4R4-200">
          <mxGeometry relative="1" as="geometry" />
        </mxCell>
        <mxCell id="xk8DJ0h1tbh3rxzaz4R4-198" value="&lt;span style=&quot;font-size: 17px;&quot;&gt;2&lt;/span&gt;" style="ellipse;whiteSpace=wrap;html=1;aspect=fixed;" vertex="1" parent="1">
          <mxGeometry x="610" y="220" width="30" height="30" as="geometry" />
        </mxCell>
        <mxCell id="xk8DJ0h1tbh3rxzaz4R4-199" style="edgeStyle=orthogonalEdgeStyle;rounded=0;orthogonalLoop=1;jettySize=auto;html=1;exitX=1;exitY=0.5;exitDx=0;exitDy=0;entryX=0;entryY=0.5;entryDx=0;entryDy=0;endArrow=none;endFill=0;" edge="1" parent="1" source="xk8DJ0h1tbh3rxzaz4R4-200" target="xk8DJ0h1tbh3rxzaz4R4-201">
          <mxGeometry relative="1" as="geometry" />
        </mxCell>
        <mxCell id="xk8DJ0h1tbh3rxzaz4R4-200" value="&lt;font style=&quot;font-size: 17px;&quot;&gt;3&lt;/font&gt;" style="ellipse;whiteSpace=wrap;html=1;aspect=fixed;" vertex="1" parent="1">
          <mxGeometry x="560" y="280" width="30" height="30" as="geometry" />
        </mxCell>
        <mxCell id="xk8DJ0h1tbh3rxzaz4R4-201" value="&lt;font style=&quot;font-size: 17px;&quot;&gt;4&lt;/font&gt;" style="ellipse;whiteSpace=wrap;html=1;aspect=fixed;" vertex="1" parent="1">
          <mxGeometry x="610" y="280" width="30" height="30" as="geometry" />
        </mxCell>
        <mxCell id="xk8DJ0h1tbh3rxzaz4R4-202" value="&lt;font style=&quot;font-size: 20px;&quot;&gt;Query Graph&lt;/font&gt;" style="text;html=1;align=center;verticalAlign=middle;whiteSpace=wrap;rounded=0;" vertex="1" parent="1">
          <mxGeometry x="536" y="322" width="140" height="30" as="geometry" />
        </mxCell>
        <mxCell id="xk8DJ0h1tbh3rxzaz4R4-203" value="&lt;font style=&quot;font-size: 20px;&quot;&gt;Data Graph&lt;/font&gt;" style="text;html=1;align=center;verticalAlign=middle;whiteSpace=wrap;rounded=0;" vertex="1" parent="1">
          <mxGeometry x="-128" y="330" width="140" height="30" as="geometry" />
        </mxCell>
        <mxCell id="xk8DJ0h1tbh3rxzaz4R4-205" style="edgeStyle=orthogonalEdgeStyle;rounded=0;orthogonalLoop=1;jettySize=auto;html=1;exitX=1;exitY=0.5;exitDx=0;exitDy=0;entryX=0;entryY=0.5;entryDx=0;entryDy=0;endArrow=none;endFill=0;" edge="1" parent="1" source="xk8DJ0h1tbh3rxzaz4R4-208" target="xk8DJ0h1tbh3rxzaz4R4-210">
          <mxGeometry relative="1" as="geometry" />
        </mxCell>
        <mxCell id="xk8DJ0h1tbh3rxzaz4R4-206" style="rounded=0;orthogonalLoop=1;jettySize=auto;html=1;exitX=0.5;exitY=1;exitDx=0;exitDy=0;entryX=0.5;entryY=0;entryDx=0;entryDy=0;endArrow=none;endFill=0;" edge="1" parent="1" source="xk8DJ0h1tbh3rxzaz4R4-208" target="xk8DJ0h1tbh3rxzaz4R4-211">
          <mxGeometry relative="1" as="geometry" />
        </mxCell>
        <mxCell id="xk8DJ0h1tbh3rxzaz4R4-207" style="rounded=0;orthogonalLoop=1;jettySize=auto;html=1;exitX=1;exitY=1;exitDx=0;exitDy=0;entryX=0;entryY=0;entryDx=0;entryDy=0;endArrow=none;endFill=0;" edge="1" parent="1" source="xk8DJ0h1tbh3rxzaz4R4-208" target="xk8DJ0h1tbh3rxzaz4R4-213">
          <mxGeometry relative="1" as="geometry" />
        </mxCell>
        <mxCell id="xk8DJ0h1tbh3rxzaz4R4-208" value="&lt;font style=&quot;font-size: 17px;&quot;&gt;3&lt;/font&gt;" style="ellipse;whiteSpace=wrap;html=1;aspect=fixed;fillColor=#dae8fc;strokeColor=#6c8ebf;" vertex="1" parent="1">
          <mxGeometry x="539" y="671" width="30" height="30" as="geometry" />
        </mxCell>
        <mxCell id="xk8DJ0h1tbh3rxzaz4R4-209" style="rounded=0;orthogonalLoop=1;jettySize=auto;html=1;exitX=0;exitY=1;exitDx=0;exitDy=0;entryX=1;entryY=0;entryDx=0;entryDy=0;endArrow=none;endFill=0;" edge="1" parent="1">
          <mxGeometry relative="1" as="geometry">
            <mxPoint x="862.1933982822391" y="653.6066017177609" as="sourcePoint" />
            <mxPoint x="833.4066017178363" y="692.3933982821636" as="targetPoint" />
          </mxGeometry>
        </mxCell>
        <mxCell id="xk8DJ0h1tbh3rxzaz4R4-210" value="&lt;span style=&quot;font-size: 17px;&quot;&gt;2&lt;/span&gt;" style="ellipse;whiteSpace=wrap;html=1;aspect=fixed;fillColor=#fff2cc;strokeColor=#d6b656;" vertex="1" parent="1">
          <mxGeometry x="589" y="671" width="30" height="30" as="geometry" />
        </mxCell>
        <mxCell id="xk8DJ0h1tbh3rxzaz4R4-211" value="&lt;font style=&quot;font-size: 17px;&quot;&gt;4&lt;/font&gt;" style="ellipse;whiteSpace=wrap;html=1;aspect=fixed;fillColor=#f8cecc;strokeColor=#b85450;" vertex="1" parent="1">
          <mxGeometry x="539" y="731" width="30" height="30" as="geometry" />
        </mxCell>
        <mxCell id="xk8DJ0h1tbh3rxzaz4R4-212" style="rounded=0;orthogonalLoop=1;jettySize=auto;html=1;exitX=0.5;exitY=0;exitDx=0;exitDy=0;entryX=0.5;entryY=1;entryDx=0;entryDy=0;endArrow=none;endFill=0;" edge="1" parent="1" source="xk8DJ0h1tbh3rxzaz4R4-213" target="xk8DJ0h1tbh3rxzaz4R4-210">
          <mxGeometry relative="1" as="geometry" />
        </mxCell>
        <mxCell id="xk8DJ0h1tbh3rxzaz4R4-213" value="&lt;font style=&quot;font-size: 17px;&quot;&gt;1&lt;/font&gt;" style="ellipse;whiteSpace=wrap;html=1;aspect=fixed;fillColor=#e1d5e7;strokeColor=#9673a6;" vertex="1" parent="1">
          <mxGeometry x="589" y="731" width="30" height="30" as="geometry" />
        </mxCell>
        <mxCell id="xk8DJ0h1tbh3rxzaz4R4-214" style="edgeStyle=orthogonalEdgeStyle;rounded=0;orthogonalLoop=1;jettySize=auto;html=1;exitX=1;exitY=0.5;exitDx=0;exitDy=0;entryX=0;entryY=0.5;entryDx=0;entryDy=0;endArrow=none;endFill=0;" edge="1" parent="1" source="xk8DJ0h1tbh3rxzaz4R4-217" target="xk8DJ0h1tbh3rxzaz4R4-219">
          <mxGeometry relative="1" as="geometry" />
        </mxCell>
        <mxCell id="xk8DJ0h1tbh3rxzaz4R4-215" style="rounded=0;orthogonalLoop=1;jettySize=auto;html=1;exitX=0.5;exitY=1;exitDx=0;exitDy=0;entryX=0.5;entryY=0;entryDx=0;entryDy=0;endArrow=none;endFill=0;" edge="1" parent="1" source="xk8DJ0h1tbh3rxzaz4R4-217" target="xk8DJ0h1tbh3rxzaz4R4-220">
          <mxGeometry relative="1" as="geometry" />
        </mxCell>
        <mxCell id="xk8DJ0h1tbh3rxzaz4R4-217" value="&lt;font style=&quot;font-size: 17px;&quot;&gt;3&lt;/font&gt;" style="ellipse;whiteSpace=wrap;html=1;aspect=fixed;fillColor=#dae8fc;strokeColor=#6c8ebf;" vertex="1" parent="1">
          <mxGeometry x="643" y="671" width="30" height="30" as="geometry" />
        </mxCell>
        <mxCell id="xk8DJ0h1tbh3rxzaz4R4-218" style="rounded=0;orthogonalLoop=1;jettySize=auto;html=1;exitX=0;exitY=1;exitDx=0;exitDy=0;entryX=1;entryY=0;entryDx=0;entryDy=0;endArrow=none;endFill=0;" edge="1" parent="1" source="xk8DJ0h1tbh3rxzaz4R4-219" target="xk8DJ0h1tbh3rxzaz4R4-220">
          <mxGeometry relative="1" as="geometry" />
        </mxCell>
        <mxCell id="xk8DJ0h1tbh3rxzaz4R4-219" value="&lt;span style=&quot;font-size: 17px;&quot;&gt;2&lt;/span&gt;" style="ellipse;whiteSpace=wrap;html=1;aspect=fixed;fillColor=#fff2cc;strokeColor=#d6b656;" vertex="1" parent="1">
          <mxGeometry x="693" y="671" width="30" height="30" as="geometry" />
        </mxCell>
        <mxCell id="xk8DJ0h1tbh3rxzaz4R4-223" style="edgeStyle=orthogonalEdgeStyle;rounded=0;orthogonalLoop=1;jettySize=auto;html=1;exitX=1;exitY=0.5;exitDx=0;exitDy=0;entryX=0;entryY=0.5;entryDx=0;entryDy=0;endArrow=none;endFill=0;" edge="1" parent="1" source="xk8DJ0h1tbh3rxzaz4R4-220" target="xk8DJ0h1tbh3rxzaz4R4-222">
          <mxGeometry relative="1" as="geometry" />
        </mxCell>
        <mxCell id="xk8DJ0h1tbh3rxzaz4R4-220" value="&lt;font style=&quot;font-size: 17px;&quot;&gt;4&lt;/font&gt;" style="ellipse;whiteSpace=wrap;html=1;aspect=fixed;fillColor=#f8cecc;strokeColor=#b85450;" vertex="1" parent="1">
          <mxGeometry x="643" y="731" width="30" height="30" as="geometry" />
        </mxCell>
        <mxCell id="xk8DJ0h1tbh3rxzaz4R4-222" value="&lt;font style=&quot;font-size: 17px;&quot;&gt;5&lt;/font&gt;" style="ellipse;whiteSpace=wrap;html=1;aspect=fixed;fillColor=#e1d5e7;strokeColor=#9673a6;" vertex="1" parent="1">
          <mxGeometry x="693" y="731" width="30" height="30" as="geometry" />
        </mxCell>
        <mxCell id="xk8DJ0h1tbh3rxzaz4R4-224" value="" style="verticalLabelPosition=bottom;verticalAlign=top;html=1;shape=mxgraph.basic.x;fillColor=#d80073;fontColor=#ffffff;strokeColor=#A50040;" vertex="1" parent="1">
          <mxGeometry x="703" y="750" width="40" height="30" as="geometry" />
        </mxCell>
        <mxCell id="xk8DJ0h1tbh3rxzaz4R4-227" value="" style="verticalLabelPosition=bottom;verticalAlign=top;html=1;shape=mxgraph.basic.tick;fillColor=#66FF66;fontColor=#ffffff;strokeColor=#006EAF;" vertex="1" parent="1">
          <mxGeometry x="-75" y="731" width="45" height="55" as="geometry" />
        </mxCell>
        <mxCell id="xk8DJ0h1tbh3rxzaz4R4-229" value="" style="verticalLabelPosition=bottom;verticalAlign=top;html=1;shape=mxgraph.basic.tick;fillColor=#66FF66;fontColor=#ffffff;strokeColor=#006EAF;" vertex="1" parent="1">
          <mxGeometry x="398" y="731" width="45" height="55" as="geometry" />
        </mxCell>
        <mxCell id="xk8DJ0h1tbh3rxzaz4R4-230" value="" style="verticalLabelPosition=bottom;verticalAlign=top;html=1;shape=mxgraph.basic.tick;fillColor=#66FF66;fontColor=#ffffff;strokeColor=#006EAF;" vertex="1" parent="1">
          <mxGeometry x="589" y="731" width="45" height="55" as="geometry" />
        </mxCell>
        <mxCell id="xk8DJ0h1tbh3rxzaz4R4-231" value="&lt;font style=&quot;font-size: 20px;&quot;&gt;...&lt;/font&gt;" style="text;html=1;align=center;verticalAlign=middle;resizable=0;points=[];autosize=1;strokeColor=none;fillColor=none;" vertex="1" parent="1">
          <mxGeometry x="-110" y="455" width="40" height="40" as="geometry" />
        </mxCell>
        <mxCell id="xk8DJ0h1tbh3rxzaz4R4-232" value="&lt;font style=&quot;font-size: 20px;&quot;&gt;...&lt;/font&gt;" style="text;html=1;align=center;verticalAlign=middle;resizable=0;points=[];autosize=1;strokeColor=none;fillColor=none;" vertex="1" parent="1">
          <mxGeometry x="-200" y="455" width="40" height="40" as="geometry" />
        </mxCell>
        <mxCell id="xk8DJ0h1tbh3rxzaz4R4-233" value="" style="rounded=0;whiteSpace=wrap;html=1;dashed=1;fillColor=none;strokeWidth=3;strokeColor=#333333;" vertex="1" parent="1">
          <mxGeometry x="-160" y="440" width="270" height="340" as="geometry" />
        </mxCell>
        <mxCell id="xk8DJ0h1tbh3rxzaz4R4-234" value="" style="rounded=0;whiteSpace=wrap;html=1;dashed=1;fillColor=none;strokeWidth=3;strokeColor=#333333;" vertex="1" parent="1">
          <mxGeometry x="338" y="517" width="153.8" height="306" as="geometry" />
        </mxCell>
        <mxCell id="xk8DJ0h1tbh3rxzaz4R4-236" value="" style="rounded=0;whiteSpace=wrap;html=1;dashed=1;fillColor=none;strokeWidth=3;strokeColor=#333333;" vertex="1" parent="1">
          <mxGeometry x="498.1" y="519" width="261.9" height="303" as="geometry" />
        </mxCell>
        <mxCell id="xk8DJ0h1tbh3rxzaz4R4-237" value="&lt;font style=&quot;font-size: 15px;&quot;&gt;Block 0&lt;/font&gt;" style="shape=process;whiteSpace=wrap;html=1;backgroundOutline=1;fillColor=#faebff;" vertex="1" parent="1">
          <mxGeometry x="-88" y="810" width="120" height="60" as="geometry" />
        </mxCell>
        <mxCell id="xk8DJ0h1tbh3rxzaz4R4-239" value="&lt;font style=&quot;font-size: 15px;&quot;&gt;Block 1&lt;/font&gt;" style="shape=process;whiteSpace=wrap;html=1;backgroundOutline=1;fillColor=#faebff;" vertex="1" parent="1">
          <mxGeometry x="353" y="839" width="120" height="60" as="geometry" />
        </mxCell>
        <mxCell id="xk8DJ0h1tbh3rxzaz4R4-240" value="&lt;font style=&quot;font-size: 15px;&quot;&gt;Block 2&lt;/font&gt;" style="shape=process;whiteSpace=wrap;html=1;backgroundOutline=1;fillColor=#faebff;" vertex="1" parent="1">
          <mxGeometry x="565" y="839" width="120" height="60" as="geometry" />
        </mxCell>
      </root>
    </mxGraphModel>
  </diagram>
</mxfile>
